<svg xmlns="http://www.w3.org/2000/svg" viewBox="0 0 54 44"><defs><style>.cls-1{fill:#0099c7;}.cls-1,.cls-2{fill-rule:evenodd;}.cls-2{fill:#fff;}</style></defs><title>Ресурс 1</title><g id="Слой_2" data-name="Слой 2"><g id="Шапка"><g id="points"><g id="_2" data-name="2"><path class="cls-1" d="M3,12H29.05c0-.33-.05-.66-.05-1a14,14,0,0,1,.16-2H0v7H3Zm27.89,6H0v5H35.82A14,14,0,0,1,30.89,18ZM42,25V41H3V25H0V44H45V25ZM11.5,33a2.5,2.5,0,1,0,0,3,2.5,2.5,0,1,0,0-3Z"/></g><g id="_2-2" data-name="2"><path class="cls-2" d="M43,0A11,11,0,1,0,54,11,11,11,0,0,0,43,0Zm3.71,14.71a1,1,0,0,1-1.43,0l-3-3A1,1,0,0,1,42,11V4a1,1,0,1,1,2,0v6.57l2.71,2.71A1,1,0,0,1,46.71,14.71Z"/></g></g></g></g></svg>