<svg xmlns="http://www.w3.org/2000/svg" viewBox="0 0 44 48"><defs><style>.cls-1{fill:#fff;}.cls-1,.cls-2{fill-rule:evenodd;}.cls-2{fill:#0099c7;}</style></defs><title>Ресурс 2</title><g id="Слой_2" data-name="Слой 2"><g id="Шапка"><g id="points"><g id="_3" data-name="3"><path class="cls-1" d="M43.38,14H38.44l.31,1h.71a.63.63,0,0,1,.64.62L40.42,23h3a.59.59,0,0,0,.6-.59V14.6A.61.61,0,0,0,43.38,14ZM40,44l-7,1v2.19a.81.81,0,0,0,.82.81h6.35a.81.81,0,0,0,.82-.81V45A1,1,0,0,0,40,44ZM3,45v2.19a.81.81,0,0,0,.82.81h6.35a.81.81,0,0,0,.82-.81V45L4,44A1,1,0,0,0,3,45Zm.89-29.43A.63.63,0,0,1,4.54,15h.71l.31-1H.62a.61.61,0,0,0-.62.6v7.84A.59.59,0,0,0,.6,23h3ZM5,27a2,2,0,0,0-2,2v8H41V29a2,2,0,0,0-2-2V22l-1.17-7.06c-.32-1.07-.89-2-2-2H8.16c-1.1,0-1.67.9-2,2L5,22Zm25,8H14V27a2,2,0,0,1,2-2H28a2,2,0,0,1,2,2Zm9-2.59v1.2a.38.38,0,0,1-.36.4H33.36a.38.38,0,0,1-.36-.4v-1.2a.38.38,0,0,1,.36-.4h5.28A.38.38,0,0,1,39,32.41ZM7,15a1.19,1.19,0,0,1,1-1H36a1.19,1.19,0,0,1,1,1l1,7a1.19,1.19,0,0,1-1,1H7a1.19,1.19,0,0,1-1-1ZM5.36,32h5.28a.38.38,0,0,1,.36.4v1.2a.38.38,0,0,1-.36.4H5.36a.38.38,0,0,1-.36-.4v-1.2A.38.38,0,0,1,5.36,32ZM2,42l12,2H30l12-2V38H2ZM14,15H11l-1,7h3Zm3,0H16l-1,7h1Z"/></g><g id="_3_copy" data-name="3 copy"><path class="cls-2" d="M37,0H7A2,2,0,0,0,5,2V13l2-1h4V7l-.73-1.56A.94.94,0,0,1,12,4.78L13,7v5H31V7l1-2.22a.94.94,0,0,1,1.73.66L33,7v5h4l2,1V2A2,2,0,0,0,37,0Z"/></g></g></g></g></svg>